# xmcd
#
# Track frame offsets:
#	150
#	17221
#	31899
#	51137
#	63264
#	88334
#	95253
#	105503
#	119731
#	131820
#	142570
#	158454
#
# Disc length: 2321 seconds
#
# Revision: 1
# Processed by: cddbd v1.5.2PL0 Copyright (c) Steve Scherf et al.
# Submitted via: audiograbber 1.83.01
#
DISCID=96090f0c
DTITLE=Dick Huis - Gouden Accordeon Sucessen
DYEAR=1900
DGENRE=
TTITLE0=Dick Huis - Musette medley
TTITLE1=Dick Huis - Diep in mijn hart
TTITLE2=Dick Huis - Weense wals medley
TTITLE3=Dick Huis - Kermis medley
TTITLE4=Dick Huis - Amsterdamse medley
TTITLE5=Dick Huis - Waterlooplein
TTITLE6=Dick Huis - La Koumba Chero
TTITLE7=Dick Huis - Wals medley
TTITLE8=Dick Huis - Zigeuner tango
TTITLE9=Dick Huis - Weekend
TTITLE10=Dick Huis - Engelse walsen medley
TTITLE11=Dick Huis - Autumn leaves
EXTD=
EXTT0=
EXTT1=
EXTT2=
EXTT3=
EXTT4=
EXTT5=
EXTT6=
EXTT7=
EXTT8=
EXTT9=
EXTT10=
EXTT11=
PLAYORDER=
